<svg aria-hidden="true" style="position: absolute; width: 0; height: 0; overflow: hidden;" version="1.1" xmlns="http://www.w3.org/2000/svg" xmlns:xlink="http://www.w3.org/1999/xlink">
<defs>
<symbol id="icon-decore7" viewBox="0 0 32 32">
<path fill="#000" style="fill: var(--color1, #000)" d="M32 16c0 8.837-7.163 16-16 16s-16-7.163-16-16c0-8.837 7.163-16 16-16s16 7.163 16 16z"></path>
<path fill="#fff" style="fill: var(--color2, #fff)" d="M24.051 10.967c0.316 0.547 0.274 1.199-0.111 1.701l-8.445 11.020c-0.348 0.454-0.922 0.686-1.508 0.574-0.574-0.11-1.030-0.529-1.188-1.092l-1.38-4.91-3.562-3.65c-0.409-0.418-0.543-1.022-0.352-1.574 0.189-0.546 0.665-0.943 1.251-1.019l13.767-1.804c0.627-0.082 1.212 0.207 1.528 0.754z"></path>
<path fill="#fff" style="fill: var(--color2, #fff)" d="M11.549 18.723l1.25 4.447c0.158 0.563 0.613 0.982 1.188 1.092 0.586 0.113 1.16-0.119 1.508-0.574l8.445-11.020c0.385-0.502 0.427-1.153 0.111-1.701l-12.632 7.293 0.13 0.463z"></path>
<path fill="#000" style="fill: var(--color1, #000)" d="M16.559 15.292c0.128 0.223 0.052 0.507-0.17 0.636l-4.84 2.794-0.13-0.463-0.336-0.344 4.84-2.794c0.223-0.129 0.508-0.052 0.636 0.17z"></path>
<path fill="#000" style="fill: var(--color1, #000)" d="M11.549 18.722l4.84-2.794c0.223-0.129 0.299-0.413 0.17-0.636l-5.14 2.968 0.13 0.463z"></path>
</symbol>
</defs>
</svg>
