<svg width="70" height="70" viewBox="0 0 70 70" fill="none" xmlns="http://www.w3.org/2000/svg">
<circle cx="35.0001" cy="35" r="35" fill="url(#paint0_linear_1_489)"/>
<path d="M52.6106 23.9904C53.302 25.1878 53.2093 26.6136 52.3679 27.711L33.8941 51.8182C33.1322 52.8123 31.8777 53.3191 30.595 53.0729C29.3388 52.8313 28.3428 51.9156 27.9972 50.6841L25.2637 40.9555L24.979 39.9435L24.245 39.191L17.1866 31.9595C16.2928 31.0444 15.9978 29.724 16.4167 28.5154C16.8312 27.3206 17.8709 26.4536 19.1528 26.2856L49.2671 22.3404C50.6382 22.1604 51.9193 22.793 52.6106 23.9904Z" fill="white"/>
<path d="M25.2637 40.9555L27.9971 50.6841C28.3428 51.9157 29.3387 52.8313 30.5949 53.0729C31.8777 53.3192 33.1322 52.8124 33.894 51.8182L52.3678 27.7111C53.2093 26.6137 53.3019 25.1879 52.6106 23.9905L24.979 39.9436L25.2637 40.9555Z" fill="white"/>
<path d="M36.2234 33.4515C36.5045 33.9385 36.3381 34.5616 35.8505 34.8431L25.2638 40.9553L24.9791 39.9434L24.2451 39.1909L34.8318 33.0787C35.3194 32.7973 35.9422 32.9646 36.2234 33.4515Z" fill="url(#paint1_linear_1_489)"/>
<path d="M25.2637 40.9554L35.8504 34.8432C36.338 34.5617 36.5045 33.9387 36.2233 33.4517L24.979 39.9435L25.2637 40.9554Z" fill="url(#paint2_linear_1_489)"/>
<defs>
<linearGradient id="paint0_linear_1_489" x1="49.6469" y1="1.96393" x2="19.5641" y2="77.7643" gradientUnits="userSpaceOnUse">
<stop stop-color="#747DEF"/>
<stop offset="1" stop-color="#5E3BE1"/>
</linearGradient>
<linearGradient id="paint1_linear_1_489" x1="32.4079" y1="34.5441" x2="33.5455" y2="36.8251" gradientUnits="userSpaceOnUse">
<stop stop-color="#747DEF"/>
<stop offset="1" stop-color="#5E3BE1"/>
</linearGradient>
<linearGradient id="paint2_linear_1_489" x1="32.9029" y1="35.4017" x2="33.507" y2="36.5259" gradientUnits="userSpaceOnUse">
<stop stop-color="#747DEF"/>
<stop offset="1" stop-color="#5E3BE1"/>
</linearGradient>
</defs>
</svg>
