<svg xmlns="http://www.w3.org/2000/svg" aria-hidden="true" style="position:absolute;width:0;height:0;overflow:hidden"><defs><symbol id="icon-logo" viewBox="0 0 108 32"><path fill="#f1a501" d="m69.722 26.639 8.941 2.824 7.529-7.529 9.412 6.588 9.882-1.882-4.235-13.647-15.059 4.706-8.471-4.706-8.941 1.412.941 12.235z" style="fill:var(--color1, #f1a501)"/><path d="M0 21.993v-2.035l5.758-1.039v2.814c.029 1.53.418 2.684 1.169 3.464.779.75 1.804 1.126 3.074 1.126 1.241 0 2.222-.404 2.944-1.212.75-.808 1.126-1.891 1.126-3.247V.65h5.975v21.214c0 2.829-.938 5.224-2.814 7.187s-4.272 2.944-7.187 2.944c-3.031 0-5.47-.909-7.317-2.728C.91 27.42 0 24.995 0 21.994zM21.418 25.544c0-1.818.592-3.276 1.775-4.373s2.713-1.789 4.589-2.078l5.239-.779c1.068-.144 1.602-.649 1.602-1.515 0-.808-.317-1.472-.952-1.992-.606-.52-1.486-.779-2.641-.779-1.212 0-2.179.332-2.901.996-.693.664-1.082 1.486-1.169 2.468l-5.109-1.082c.202-1.847 1.111-3.478 2.728-4.892s3.752-2.121 6.408-2.121c3.175 0 5.513.765 7.014 2.295 1.501 1.501 2.251 3.435 2.251 5.801V27.97c0 1.27.087 2.396.26 3.377H35.23c-.144-.635-.216-1.486-.216-2.554-1.357 2.107-3.449 3.16-6.278 3.16-2.194 0-3.969-.635-5.325-1.905-1.328-1.27-1.992-2.771-1.992-4.503zm8.529 2.121c1.357 0 2.468-.375 3.334-1.126.895-.779 1.342-2.049 1.342-3.81v-.952l-4.806.736c-1.761.26-2.641 1.155-2.641 2.684 0 .693.245 1.284.736 1.775.491.462 1.169.693 2.035.693zM62.812 0v27.492c0 1.414.058 2.699.173 3.853h-5.498c-.144-.722-.216-1.544-.216-2.468-.491.895-1.27 1.616-2.338 2.165-1.039.548-2.251.823-3.637.823-3.031 0-5.527-1.053-7.49-3.16-1.934-2.136-2.901-4.82-2.901-8.053 0-3.146.952-5.787 2.857-7.923 1.934-2.136 4.387-3.204 7.36-3.204 3.059 0 5.065.88 6.018 2.641V0h5.672zM46.707 20.651c0 1.876.491 3.363 1.472 4.459.981 1.068 2.251 1.602 3.81 1.602 1.53 0 2.785-.548 3.767-1.645s1.472-2.583 1.472-4.459c0-1.847-.491-3.29-1.472-4.329-.981-1.068-2.237-1.602-3.767-1.602s-2.8.534-3.81 1.602c-.981 1.068-1.472 2.525-1.472 4.373zM71.31 25.154c1.068 1.068 2.352 1.602 3.853 1.602s2.771-.534 3.81-1.602c1.068-1.068 1.602-2.554 1.602-4.459s-.534-3.391-1.602-4.459c-1.039-1.068-2.309-1.602-3.81-1.602s-2.785.534-3.853 1.602c-1.039 1.068-1.559 2.554-1.559 4.459s.52 3.391 1.559 4.459zm-4.156-12.555c2.136-2.136 4.806-3.204 8.009-3.204s5.859 1.068 7.966 3.204c2.136 2.136 3.204 4.835 3.204 8.096s-1.068 5.96-3.204 8.096c-2.107 2.136-4.762 3.204-7.966 3.204s-5.874-1.068-8.009-3.204c-2.107-2.136-3.16-4.835-3.16-8.096s1.053-5.96 3.16-8.096z" style="fill:var(--color2, #000)"/><path d="M93.129 25.154c1.068 1.068 2.352 1.602 3.853 1.602s2.771-.534 3.81-1.602c1.068-1.068 1.602-2.554 1.602-4.459s-.534-3.391-1.602-4.459c-1.039-1.068-2.309-1.602-3.81-1.602s-2.785.534-3.853 1.602c-1.039 1.068-1.559 2.554-1.559 4.459s.52 3.391 1.559 4.459zm-4.156-12.555c2.136-2.136 4.806-3.204 8.009-3.204s5.859 1.068 7.966 3.204c2.136 2.136 3.204 4.835 3.204 8.096s-1.068 5.96-3.204 8.096c-2.107 2.136-4.762 3.204-7.966 3.204s-5.874-1.068-8.009-3.204c-2.107-2.136-3.161-4.835-3.161-8.096s1.054-5.96 3.161-8.096z" style="fill:var(--color2, #000)"/></symbol><symbol id="icon-fb" viewBox="0 0 33 32"><path fill="#335bf5" d="M31.387 0H1.947C1.239 0 .667.572.667 1.28v29.44c0 .708.572 1.28 1.28 1.28h29.44c.708 0 1.28-.572 1.28-1.28V1.28c0-.708-.572-1.28-1.28-1.28zm-3.696 9.34h-2.556c-2.004 0-2.392.952-2.392 2.352v3.084h4.784l-.624 4.828h-4.16V32h-4.988V19.608h-4.172v-4.832h4.172v-3.56c0-4.132 2.524-6.384 6.212-6.384 1.768 0 3.284.132 3.728.192V9.34h-.004z" style="fill:var(--color3, #335bf5)"/></symbol><symbol id="icon-heart" viewBox="0 0 32 32"><path fill="#4152ca" d="M29.383 3.927a8.766 8.766 0 0 0-6.404-2.795 8.776 8.776 0 0 0-6.411 2.794l-.565.597-.565-.597a8.75 8.75 0 0 0-12.82 0 9.814 9.814 0 0 0 0 13.344l12.555 13.24a1.144 1.144 0 0 0 1.661 0l12.551-13.24a9.813 9.813 0 0 0 0-13.343zm-1.655 11.768h-.001L16.002 28.061 4.276 15.695a7.499 7.499 0 0 1 0-10.196 6.464 6.464 0 0 1 9.501 0l1.394 1.471a1.18 1.18 0 0 0 1.661 0l1.394-1.47a6.464 6.464 0 0 1 9.502 0c2.689 2.88 2.708 7.332 0 10.194z" style="fill:var(--color4, #4152ca)"/></symbol><symbol id="icon-house" viewBox="0 0 32 32"><path fill="#84829a" d="M.533 30.933h3.2v-17.6c0-.295.239-.533.533-.533h7.467V.533c0-.295.239-.533.533-.533h13.867c.294 0 .533.239.533.533v30.4h4.8a.533.533 0 1 1 0 1.066H.533a.533.533 0 1 1 0-1.066zm20.267 0h2.133v-4.8a.533.533 0 0 0-.533-.533h-1.067a.533.533 0 0 0-.533.533v4.8zm-2.133-17.6v17.6h1.067v-4.8a1.6 1.6 0 0 1 1.6-1.6h1.067a1.6 1.6 0 0 1 1.6 1.6v4.8h1.6V1.066h-12.8v11.733h5.333c.295 0 .533.239.533.533zM4.8 30.933h12.8V13.866H4.8v17.067z" style="fill:var(--color5, #84829a)"/><path fill="#84829a" d="M14.933 7.467h3.2c.295 0 .533.239.533.533v3.2a.533.533 0 0 1-.533.533h-3.2a.533.533 0 0 1-.533-.533V8c0-.295.239-.533.533-.533zm.534 3.2H17.6V8.534h-2.133v2.133zM14.933 2.133h3.2c.295 0 .533.239.533.533v3.2a.533.533 0 0 1-.533.533h-3.2a.533.533 0 0 1-.533-.533v-3.2c0-.295.239-.533.533-.533zm.534 3.2H17.6V3.2h-2.133v2.133zM20.267 7.467h3.2c.295 0 .533.239.533.533v3.2a.533.533 0 0 1-.533.533h-3.2a.533.533 0 0 1-.533-.533V8c0-.295.239-.533.533-.533zm.533 3.2h2.133V8.534H20.8v2.133zM20.267 2.133h3.2c.295 0 .533.239.533.533v3.2a.533.533 0 0 1-.533.533h-3.2a.533.533 0 0 1-.533-.533v-3.2c0-.295.239-.533.533-.533zm.533 3.2h2.133V3.2H20.8v2.133zM20.267 12.8h3.2c.295 0 .533.239.533.533v3.2a.533.533 0 0 1-.533.533h-3.2a.533.533 0 0 1-.533-.533v-3.2c0-.295.239-.533.533-.533zM20.8 16h2.133v-2.133H20.8V16zM20.267 18.133h3.2c.295 0 .533.239.533.533v3.2a.533.533 0 0 1-.533.533h-3.2a.533.533 0 0 1-.533-.533v-3.2c0-.295.239-.533.533-.533zm.533 3.2h2.133V19.2H20.8v2.133zM10.133 24.533h-3.2A.533.533 0 0 1 6.4 24v-3.2c0-.295.239-.533.533-.533h3.2c.295 0 .533.239.533.533V24a.533.533 0 0 1-.533.533zm-.533-3.2H7.467v2.133H9.6v-2.133zM10.133 19.2h-3.2a.533.533 0 0 1-.533-.533v-3.2c0-.295.239-.533.533-.533h3.2c.295 0 .533.239.533.533v3.2a.533.533 0 0 1-.533.533zM9.6 16H7.467v2.133H9.6V16zM10.133 29.867h-3.2a.533.533 0 0 1-.533-.533v-3.2c0-.295.239-.533.533-.533h3.2c.295 0 .533.239.533.533v3.2a.533.533 0 0 1-.533.533zm-.533-3.2H7.467V28.8H9.6v-2.133zM15.467 24.533h-3.2a.533.533 0 0 1-.533-.533v-3.2c0-.295.239-.533.533-.533h3.2c.295 0 .533.239.533.533V24a.533.533 0 0 1-.533.533zm-.534-3.2H12.8v2.133h2.133v-2.133zM15.467 19.2h-3.2a.533.533 0 0 1-.533-.533v-3.2c0-.295.239-.533.533-.533h3.2c.295 0 .533.239.533.533v3.2a.533.533 0 0 1-.533.533zm-.534-3.2H12.8v2.133h2.133V16zM15.467 29.867h-3.2a.533.533 0 0 1-.533-.533v-3.2c0-.295.239-.533.533-.533h3.2c.295 0 .533.239.533.533v3.2a.533.533 0 0 1-.533.533zm-.534-3.2H12.8V28.8h2.133v-2.133z" style="fill:var(--color5, #84829a)"/></symbol><symbol id="icon-insta" viewBox="0 0 33 32"><path fill="#e61f5a" d="M16.669 7.796c-4.54 0-8.204 3.664-8.204 8.204s3.664 8.204 8.204 8.204c4.54 0 8.204-3.664 8.204-8.204s-3.664-8.204-8.204-8.204zm0 13.536c-2.936 0-5.332-2.396-5.332-5.332s2.396-5.332 5.332-5.332 5.332 2.396 5.332 5.332-2.396 5.332-5.332 5.332zm8.54-15.784c-1.06 0-1.916.856-1.916 1.916s.856 1.916 1.916 1.916 1.916-.852 1.916-1.916a1.925 1.925 0 0 0-.56-1.356 1.906 1.906 0 0 0-1.356-.56zM32.661 16c0-2.208.02-4.396-.104-6.6-.124-2.56-.708-4.832-2.58-6.704C28.101.82 25.833.24 23.273.116c-2.208-.124-4.396-.104-6.6-.104-2.208 0-4.396-.02-6.6.104-2.56.124-4.832.708-6.704 2.58C1.493 4.572.913 6.84.789 9.4.665 11.608.685 13.796.685 16s-.02 4.396.104 6.6c.124 2.56.708 4.832 2.58 6.704 1.876 1.876 4.144 2.456 6.704 2.58 2.208.124 4.396.104 6.6.104 2.208 0 4.396.02 6.6-.104 2.56-.124 4.832-.708 6.704-2.58 1.876-1.876 2.456-4.144 2.58-6.704.128-2.204.104-4.392.104-6.6zm-3.52 9.432a5.083 5.083 0 0 1-1.208 1.832 5.117 5.117 0 0 1-1.832 1.208c-2.104.836-7.1.648-9.432.648s-7.332.188-9.436-.644a5.083 5.083 0 0 1-1.832-1.208 5.117 5.117 0 0 1-1.208-1.832c-.832-2.108-.644-7.104-.644-9.436s-.188-7.332.644-9.436c.292-.728.644-1.272 1.208-1.832s1.104-.916 1.832-1.208c2.104-.832 7.104-.644 9.436-.644s7.332-.188 9.436.644a5.083 5.083 0 0 1 1.832 1.208 5.117 5.117 0 0 1 1.208 1.832c.832 2.104.644 7.104.644 9.436s.188 7.328-.648 9.432z" style="fill:var(--color7, #e61f5a)"/></symbol><symbol id="icon-leaf1" viewBox="0 0 32 32"><path fill="#84829a" d="M31.21.345C30.367.098 9.743-1.955 2.5 7.83c-3.208 4.335-3.256 10.278-.161 17.661a37.161 37.161 0 0 0-2.033 5.158 1.043 1.043 0 0 0 1.992.617C7.819 13.418 25.759 4.784 31.26 2.602c.535-.212 1.251-1.876-.05-2.257z" style="fill:var(--color5, #84829a)"/><path fill="#84829a" d="M5.65 27.725c2.986 1.253 5.972 1.895 8.748 1.895 2.496 0 4.823-.513 6.828-1.554 4.036-2.094 6.503-6.099 7.132-11.583.642-5.59 1.44-9.091 2.107-11.232-5.932 2.736-18.652 9.829-24.816 22.475z" style="fill:var(--color5, #84829a)"/></symbol><symbol id="icon-map" viewBox="0 0 32 32"><path fill="#84829a" d="M30.859 0c-.178 0-.353.041-.512.121l-8.66 4.331L11.894.099c-.016-.007-.034-.008-.051-.015a1.238 1.238 0 0 0-.135-.041 1.3 1.3 0 0 0-.138-.029 1.625 1.625 0 0 0-.279 0 1.056 1.056 0 0 0-.138.029 1.238 1.238 0 0 0-.135.041c-.017.007-.035.008-.051.015L.681 4.67a1.143 1.143 0 0 0-.679 1.045v25.142a1.143 1.143 0 0 0 1.607 1.045l9.822-4.366 9.822 4.366c.017.007.035 0 .053.01.277.124.594.117.865-.019.018-.008.039 0 .057-.013l9.143-4.571c.387-.194.632-.59.632-1.023V1.144c0-.631-.511-1.143-1.142-1.143zM10.288 25.543l-8 3.555V6.457l8-3.555v22.641zm10.285 3.555-8-3.555V2.902l8 3.555v22.641zm9.143-3.518-6.857 3.428V6.421l6.857-3.429v22.587z" style="fill:var(--color5, #84829a)"/></symbol><symbol id="icon-menu" viewBox="0 0 55 32"><path fill="#737373" d="M1.306 0h52.245v5.224H1.306V0zm13.062 13.061h39.184v5.224H14.368v-5.224zm16.326 13.061h22.857v5.224H30.694v-5.224z" style="fill:var(--color8, #737373)"/></symbol><symbol id="icon-navigation" viewBox="0 0 32 32"><path d="M30.344 3.129 18.122 29.796a1.112 1.112 0 0 1-2.118-.37L14.971 17.03 2.575 15.997a1.113 1.113 0 0 1-.37-2.118L28.872 1.657a1.109 1.109 0 0 1 1.249.225 1.112 1.112 0 0 1 .225 1.248z"/></symbol><symbol id="icon-send" viewBox="0 0 32 32"><path fill="#84829a" d="m28.213 2.84-14.44 14.493a3.137 3.137 0 0 0-.52-.24L3.72 13.866a1.335 1.335 0 0 1-.727-2.113c.183-.234.439-.401.727-.473l23.653-8.413c.154-.053.317-.08.48-.08.122-.002.244.016.36.053zM29.134 4.627l-8.413 23.68a1.335 1.335 0 0 1-1.333.907 1.332 1.332 0 0 1-1.334-.934l-3.173-9.533a3.137 3.137 0 0 0-.24-.52l14.52-14.44c.082.276.073.57-.026.84z" style="fill:var(--color5, #84829a)"/></symbol><symbol id="icon-telegram" viewBox="0 0 33 32"><path fill="#fff" d="M27.353 9.448a2.403 2.403 0 0 1-.177 2.706L13.741 29.686a2.43 2.43 0 0 1-2.399.913 2.428 2.428 0 0 1-1.889-1.737l-2.195-7.811-5.667-5.807a2.428 2.428 0 0 1-.56-2.505 2.432 2.432 0 0 1 1.99-1.622l21.901-2.869a2.404 2.404 0 0 1 2.432 1.2z" style="fill:var(--color6, #fff)"/><path fill="#fff" d="m7.465 21.786 1.988 7.075a2.426 2.426 0 0 0 1.889 1.737 2.427 2.427 0 0 0 2.399-.913l13.436-17.532a2.405 2.405 0 0 0 .177-2.706L7.258 21.049l.207.736z" style="fill:var(--color6, #fff)"/><path d="M15.435 16.328a.742.742 0 0 1-.271 1.012l-7.699 4.445-.207-.736-.534-.547 7.699-4.445a.74.74 0 0 1 1.012.271z" style="fill:var(--color2, #000)"/><path d="m7.465 21.786 7.699-4.445a.74.74 0 0 0 .271-1.012L7.257 21.05l.207.736z" style="fill:var(--color2, #000)"/></symbol><symbol id="icon-tw" viewBox="0 0 40 32"><path fill="#21a6df" d="M39.201 3.945c-1.411.617-2.946 1.062-4.527 1.235A7.934 7.934 0 0 0 38.131.783a15.368 15.368 0 0 1-4.988 1.927c-.736-.798-1.625-1.434-2.613-1.867S28.476.187 27.399.189c-4.356 0-7.86 3.583-7.86 7.981 0 .617.074 1.235.194 1.829C13.21 9.653 7.392 6.49 3.525 1.649a8.004 8.004 0 0 0-1.069 4.028 8.018 8.018 0 0 0 3.503 6.648 7.847 7.847 0 0 1-3.554-1.015v.098c0 3.878 2.701 7.092 6.302 7.831a8.218 8.218 0 0 1-2.07.271c-.512 0-.996-.052-1.484-.122.996 3.162 3.895 5.459 7.348 5.534a15.61 15.61 0 0 1-9.759 3.41 15.8 15.8 0 0 1-1.899-.098 22.022 22.022 0 0 0 12.073 3.579c14.456 0 22.367-12.154 22.367-22.703 0-.346 0-.692-.023-1.039a17.056 17.056 0 0 0 3.941-4.126z" style="fill:var(--color9, #21a6df)"/></symbol><symbol id="icon-yt" viewBox="0 0 44 32"><path fill="#e42f08" d="M42.613 5.211c-.242-.947-.718-1.811-1.377-2.505s-1.481-1.193-2.382-1.448C35.536.314 22.201.314 22.201.314s-13.334 0-16.653.944c-.901.255-1.723.754-2.382 1.448S2.031 4.264 1.789 5.211c-.62 3.559-.92 7.17-.898 10.788a60.713 60.713 0 0 0 .898 10.788c.243.948.717 1.811 1.377 2.505s1.481 1.193 2.382 1.448c3.318.944 16.653.944 16.653.944s13.334 0 16.653-.944c.901-.255 1.723-.755 2.382-1.448s1.135-1.558 1.377-2.505c.62-3.559.92-7.17.898-10.788a60.806 60.806 0 0 0-.898-10.788zM17.939 22.722V9.277L29.005 16l-11.066 6.723z" style="fill:var(--color10, #e42f08)"/></symbol><symbol id="icon-play3" viewBox="0 0 32 32"><path fill="#ffffff" d="m6 4 20 12L6 28z"/></symbol></defs></svg>